<svg xmlns="http://www.w3.org/2000/svg" viewBox="0 0 800 760" fill="none"><defs><linearGradient id="band"><stop stop-color="#777"/><stop offset=".25" stop-color="#ddd"/><stop offset=".5" stop-color="#fff"/><stop offset=".8" stop-color="#aaa"/><stop offset="1" stop-color="#505050"/></linearGradient><linearGradient id="shell"><stop stop-color="#eee"/><stop offset=".35" stop-color="#d2d2d0"/><stop offset=".75" stop-color="#949492"/><stop offset="1" stop-color="#dededb"/></linearGradient><linearGradient id="right"><stop stop-color="#858583"/><stop offset=".45" stop-color="#d2d2ce"/><stop offset=".8" stop-color="#f4f4f0"/><stop offset="1" stop-color="#b2b2b0"/></linearGradient><linearGradient id="pad" x2="1" y2="1"><stop stop-color="#444"/><stop offset=".45" stop-color="#171717"/><stop offset="1" stop-color="#363636"/></linearGradient><filter id="shadow" x="-50%" y="-100%" width="200%" height="300%"><feGaussianBlur stdDeviation="15"/></filter></defs><ellipse cx="405" cy="688" rx="218" ry="15" fill="#000" opacity=".15" filter="url(#shadow)"/><path d="M191 445V294C191 49 607 49 607 294V445" stroke="#252525" stroke-width="52"/><path d="M185 434V289C185 46 613 46 613 289V434" stroke="url(#band)" stroke-width="36"/><path d="M212 303C212 86 586 86 586 303" stroke="#484848" stroke-width="12"/><path d="M180 327L174 426M619 327L625 426" stroke="#d8d8d8" stroke-width="17"/><g transform="rotate(-12 235 496)"><rect x="211" y="350" width="112" height="273" rx="53" fill="url(#pad)"/><rect x="131" y="345" width="136" height="276" rx="64" fill="url(#shell)"/><rect x="141" y="355" width="114" height="252" rx="55" stroke="white" stroke-opacity=".35"/><path d="M173 378C192 366 220 369 235 380" stroke="white" stroke-opacity=".6" stroke-width="2"/><circle cx="192" cy="566" r="4" fill="#787876"/></g><g transform="rotate(12 568 496)"><rect x="477" y="350" width="112" height="273" rx="53" fill="url(#pad)"/><rect x="533" y="345" width="136" height="276" rx="64" fill="url(#right)"/><rect x="544" y="355" width="114" height="252" rx="55" stroke="white" stroke-opacity=".45"/><path d="M574 378C593 366 621 369 637 380" stroke="white" stroke-opacity=".8" stroke-width="2"/><rect x="644" y="466" width="7" height="35" rx="3.5" fill="#858583"/></g></svg>
